<?xml version="1.0" encoding="UTF-8" standalone="no"?>
<svg height="320" width="300">
    <circle cx="166" cy="105" fill="#94c147" r="26"/>
    <rect cx="137" cy="108" fill="#ffffff" height="58" width="58"/>
    <rect cx="139" cy="111" fill="#94c147" height="52" width="52"/>
    <circle cx="157" cy="96" fill="#ffffff" r="3"/>
    <circle cx="173" cy="96" fill="#ffffff" r="3"/>
    <rect cx="126" cy="115" fill="#94c147" height="31" width="11"/>
    <circle cx="132" cy="115" fill="#94c147" r="5"/>
    <circle cx="132" cy="147" fill="#94c147" r="5"/>
    <rect cx="195" cy="116" fill="#94c147" height="31" width="11"/>
    <circle cx="201" cy="115" fill="#94c147" r="5"/>
    <circle cx="200" cy="147" fill="#94c147" r="5"/>
    <rect cx="174" cy="150" fill="#94c147" height="31" width="11"/>
    <circle cx="180" cy="181" fill="#94c147" r="5"/>
    <rect cx="146" cy="150" fill="#94c147" height="31" width="11"/>
    <circle cx="151" cy="181" fill="#94c147" r="5"/>
    <line stroke="#94c147" stroke-width="3" x1="142" x2="164" y1="75" y2="93"/>
    <line stroke="#94c147" stroke-width="3" x1="186" x2="164" y1="75" y2="93"/>
</svg>